<svg width="32" height="32" viewBox="0 0 32 32" fill="none" xmlns="http://www.w3.org/2000/svg">
<path fill-rule="evenodd" clip-rule="evenodd" d="M21.3333 14C21.3333 18.0501 18.0501 21.3333 14 21.3333C9.94991 21.3333 6.66667 18.0501 6.66667 14C6.66667 9.94991 9.94991 6.66667 14 6.66667C18.0501 6.66667 21.3333 9.94991 21.3333 14ZM20.1276 21.9033C18.4349 23.2175 16.3088 24 14 24C8.47715 24 4 19.5228 4 14C4 8.47715 8.47715 4 14 4C19.5228 4 24 8.47715 24 14C24 16.3088 23.2175 18.4349 21.9033 20.1276C22.0382 20.1913 22.1646 20.279 22.2761 20.3905L27.6095 25.7239C28.1302 26.2446 28.1302 27.0888 27.6095 27.6095C27.0888 28.1302 26.2446 28.1302 25.7239 27.6095L20.3905 22.2761C20.279 22.1646 20.1913 22.0382 20.1276 21.9033Z" fill="#2A7DE1"/>
</svg>
