<svg width="288" height="36" viewBox="0 0 288 36" fill="none" xmlns="http://www.w3.org/2000/svg">
<path d="M176.67 25.2799L177.891 29.41C177.957 29.6443 177.937 29.8946 177.836 30.1159C177.734 30.3372 177.557 30.515 177.336 30.6174C175.52 31.5361 173.511 32.0099 171.476 31.9998C165.419 31.9998 161.783 28.7273 161.783 22.3743V13.1071H158.394C158.124 13.106 157.866 12.9981 157.675 12.807C157.485 12.6159 157.378 12.3571 157.378 12.0874V8.0085C157.378 7.73879 157.485 7.48006 157.675 7.28895C157.866 7.09783 158.124 6.9899 158.394 6.98877H161.783V1.01547C161.783 0.881757 161.809 0.749362 161.861 0.625881C161.912 0.502401 161.987 0.390266 162.082 0.295916C162.177 0.201565 162.289 0.126856 162.413 0.0760763C162.537 0.0252962 162.669 -0.00055285 162.803 8.96505e-06H168.518C168.652 -0.00055285 168.784 0.0252962 168.908 0.0760763C169.032 0.126856 169.144 0.201565 169.239 0.295916C169.334 0.390266 169.409 0.502401 169.46 0.625881C169.512 0.749362 169.538 0.881757 169.538 1.01547V6.98877H175.94C176.211 6.98877 176.47 7.09621 176.661 7.28744C176.853 7.47868 176.96 7.73805 176.96 8.0085V12.0874C176.96 12.3579 176.853 12.6172 176.661 12.8085C176.47 12.9997 176.211 13.1071 175.94 13.1071H169.538V21.602C169.538 24.1065 170.75 25.1177 172.786 25.1177C173.662 25.0938 174.528 24.9222 175.347 24.61C175.477 24.5624 175.616 24.5421 175.755 24.5504C175.894 24.5587 176.03 24.5954 176.154 24.6582C176.278 24.721 176.387 24.8085 176.476 24.9155C176.565 25.0224 176.631 25.1464 176.67 25.2799Z" fill="#2A7DE1"/>
<path fill-rule="evenodd" clip-rule="evenodd" d="M44.0865 6.50665C41.5685 6.50665 39.1069 7.25309 37.0132 8.6516C34.9195 10.0501 33.2877 12.0379 32.324 14.3635C31.3604 16.6891 31.1083 19.2482 31.5995 21.717C32.0908 24.1859 33.3033 26.4537 35.0839 28.2337C36.8644 30.0136 39.133 31.2258 41.6027 31.7169C44.0724 32.208 46.6323 31.9559 48.9587 30.9926C51.2851 30.0293 53.2735 28.398 54.6725 26.305C56.0715 24.212 56.8182 21.7513 56.8182 19.234C56.817 15.8589 55.4753 12.6223 53.0879 10.2357C50.7005 7.84906 47.4628 6.50778 44.0865 6.50665ZM44.0865 25.5188C42.8431 25.5188 41.6276 25.1502 40.5937 24.4596C39.5599 23.7691 38.7541 22.7875 38.2782 21.6391C37.8024 20.4907 37.6779 19.2271 37.9204 18.0079C38.163 16.7888 38.7618 15.669 39.6411 14.79C40.5203 13.9111 41.6405 13.3125 42.86 13.07C44.0796 12.8275 45.3437 12.952 46.4924 13.4277C47.6412 13.9034 48.6231 14.7089 49.3139 15.7424C50.0047 16.7759 50.3734 17.991 50.3734 19.234C50.374 20.0595 50.2117 20.877 49.896 21.6398C49.5803 22.4025 49.1172 23.0956 48.5333 23.6793C47.9494 24.263 47.2561 24.7259 46.4931 25.0416C45.73 25.3572 44.9123 25.5194 44.0865 25.5188Z" fill="#2A7DE1"/>
<path fill-rule="evenodd" clip-rule="evenodd" d="M186.195 8.65587C188.289 7.25736 190.75 6.51091 193.268 6.51091C196.645 6.51204 199.882 7.85332 202.27 10.2399C204.657 12.6265 205.999 15.8631 206 19.2383C206 21.7556 205.253 24.2163 203.854 26.3093C202.455 28.4023 200.467 30.0336 198.141 30.9969C195.814 31.9602 193.254 32.2122 190.785 31.7212C188.315 31.2301 186.046 30.0179 184.266 28.2379C182.485 26.458 181.273 24.1902 180.781 21.7213C180.29 19.2524 180.542 16.6934 181.506 14.3677C182.469 12.0421 184.101 10.0544 186.195 8.65587ZM189.761 24.4852C190.799 25.1786 192.02 25.5487 193.268 25.5487C194.943 25.5487 196.548 24.8838 197.732 23.7004C198.916 22.517 199.581 20.9119 199.581 19.2383C199.581 17.9902 199.211 16.7702 198.517 15.7325C197.823 14.6947 196.837 13.8859 195.684 13.4083C194.531 12.9307 193.261 12.8057 192.037 13.0492C190.812 13.2927 189.688 13.8937 188.805 14.7762C187.922 15.6587 187.321 16.7831 187.077 18.0072C186.834 19.2313 186.959 20.5001 187.436 21.6532C187.914 22.8062 188.723 23.7918 189.761 24.4852Z" fill="#2A7DE1"/>
<path d="M99.7251 16.5162V30.5663C99.7251 30.7002 99.6987 30.8328 99.6475 30.9565C99.5962 31.0802 99.5211 31.1926 99.4264 31.2873C99.3316 31.382 99.2192 31.4571 99.0954 31.5084C98.9716 31.5596 98.839 31.586 98.705 31.586H93.1565C93.0228 31.586 92.8903 31.5596 92.7668 31.5083C92.6433 31.457 92.5311 31.3818 92.4368 31.2871C92.3424 31.1923 92.2676 31.0799 92.2168 30.9562C92.1661 30.8325 92.1402 30.7 92.1407 30.5663V18.129C92.1407 15.4239 90.3695 13.7173 88.1245 13.7173C85.299 13.7173 83.4296 15.5306 83.4296 18.1076V30.5663C83.4296 30.8367 83.3221 31.0961 83.1308 31.2873C82.9395 31.4785 82.6801 31.586 82.4096 31.586H76.7928C76.659 31.586 76.5266 31.5596 76.4031 31.5083C76.2795 31.457 76.1673 31.3818 76.0729 31.2871C75.9786 31.1923 75.9039 31.0799 75.8531 30.9562C75.8023 30.8325 75.7764 30.7 75.777 30.5663V18.129C75.777 15.4239 74.0057 13.7173 71.7095 13.7173C68.9352 13.7173 67.117 15.5818 67.117 18.1076V30.5663C67.117 30.8367 67.0096 31.0961 66.8183 31.2873C66.627 31.4785 66.3675 31.586 66.097 31.586H60.4802C60.3465 31.586 60.214 31.5596 60.0905 31.5083C59.967 31.457 59.8548 31.3818 59.7604 31.2871C59.666 31.1923 59.5913 31.0799 59.5405 30.9562C59.4897 30.8325 59.4638 30.7 59.4644 30.5663V8.61863C59.4638 8.48492 59.4897 8.35242 59.5405 8.22872C59.5913 8.10503 59.666 7.99258 59.7604 7.89783C59.8548 7.80309 59.967 7.72791 60.0905 7.67661C60.214 7.62531 60.3465 7.5989 60.4802 7.59891H66.097C66.3675 7.59891 66.627 7.70634 66.8183 7.89758C67.0096 8.08881 67.117 8.34818 67.117 8.61863V9.77916C68.7432 7.97864 71.0906 6.89064 74.1978 6.89064C77.5482 6.89064 80.4121 8.31143 82.0425 10.9141C83.9546 8.45223 86.827 6.89064 90.5573 6.89064C95.6576 6.91197 99.7251 10.752 99.7251 16.5162Z" fill="#2A7DE1"/>
<path d="M154.783 16.8362V30.5663C154.783 30.8367 154.676 31.0961 154.484 31.2873C154.293 31.4785 154.034 31.586 153.763 31.586H148.215C147.945 31.586 147.686 31.4791 147.495 31.2888C147.304 31.0985 147.196 30.8402 147.195 30.5705V18.4319C147.195 16.9215 146.234 13.8495 142.662 13.8495C142.065 13.849 141.474 13.966 140.923 14.1939C140.371 14.4218 139.87 14.7561 139.448 15.1777C139.026 15.5993 138.691 16.0999 138.462 16.651C138.234 17.2021 138.116 17.7927 138.116 18.3892V30.5492C138.116 30.8196 138.009 31.079 137.818 31.2702C137.626 31.4615 137.367 31.5689 137.096 31.5689H131.484C131.214 31.5678 130.956 31.4599 130.765 31.2687C130.575 31.0776 130.468 30.8189 130.468 30.5492V8.61863C130.468 8.34892 130.575 8.09019 130.765 7.89908C130.956 7.70797 131.214 7.60004 131.484 7.59891H137.096C137.367 7.59891 137.626 7.70634 137.818 7.89758C138.009 8.08881 138.116 8.34819 138.116 8.61863V9.89863C139.07 8.9201 140.216 8.14958 141.483 7.63557C142.749 7.12156 144.108 6.87519 145.475 6.91198C151.061 6.91198 154.783 10.8458 154.783 16.8362Z" fill="#2A7DE1"/>
<path fill-rule="evenodd" clip-rule="evenodd" d="M126.793 21.2607C127.048 21.2557 127.292 21.1573 127.48 20.9843C127.667 20.8113 127.784 20.5757 127.809 20.322C127.839 19.9636 127.856 19.6052 127.856 19.2383C127.868 16.0905 126.712 13.05 124.612 10.7042C122.512 8.35832 119.618 6.87358 116.487 6.53673C113.356 6.19988 110.211 7.03482 107.66 8.88028C105.109 10.7257 103.333 13.4508 102.674 16.529C102.589 16.9106 102.525 17.2966 102.482 17.6853C102.417 18.2004 102.385 18.7191 102.384 19.2383C102.379 22.0358 103.297 24.757 104.994 26.981C106.692 29.205 109.075 30.8079 111.776 31.5418C114.476 32.2757 117.343 32.0998 119.934 31.0411C122.524 29.9825 124.693 28.1001 126.106 25.6852C126.182 25.5507 126.227 25.4006 126.237 25.2462C126.247 25.0919 126.221 24.9374 126.162 24.7943C126.104 24.6513 126.013 24.5234 125.898 24.4206C125.782 24.3177 125.645 24.2424 125.496 24.2004L121.104 22.9588C120.916 22.9046 120.716 22.906 120.529 22.9628C120.342 23.0195 120.176 23.1293 120.05 23.2788C119.329 24.1591 118.385 24.8301 117.316 25.222C116.248 25.614 115.094 25.7125 113.974 25.5073C112.855 25.3021 111.811 24.8008 110.951 24.0554C110.091 23.3101 109.447 22.348 109.085 21.2692L126.793 21.2607ZM115.124 12.8853C116.332 12.8858 117.514 13.2294 118.533 13.8761C119.553 14.5227 120.367 15.4457 120.882 16.5375H109.358C109.873 15.4441 110.689 14.5199 111.71 13.8731C112.731 13.2263 113.915 12.8837 115.124 12.8853Z" fill="#2A7DE1"/>
<path d="M28.0002 22.2463L23.173 20.9663C22.9382 20.9027 22.6884 20.9244 22.468 21.0275C22.2476 21.1306 22.071 21.3085 21.9694 21.5295C21.4383 22.7318 20.5099 23.7151 19.3398 24.3144C18.1697 24.9138 16.8291 25.0928 15.5426 24.8215C14.2562 24.5502 13.1022 23.8451 12.274 22.8243C11.4458 21.8035 10.9938 20.5292 10.9938 19.2148C10.9938 17.9005 11.4458 16.6262 12.274 15.6054C13.1022 14.5846 14.2562 13.8794 15.5426 13.6081C16.8291 13.3368 18.1697 13.5159 19.3398 14.1153C20.5099 14.7146 21.4383 15.6979 21.9694 16.9002C22.0665 17.1259 22.2414 17.3094 22.4621 17.4174C22.6829 17.5254 22.9351 17.5508 23.173 17.489L28.0002 16.209C28.1371 16.1726 28.265 16.108 28.3756 16.0194C28.4862 15.9309 28.5771 15.8202 28.6425 15.6946C28.708 15.5689 28.7465 15.431 28.7557 15.2897C28.7649 15.1483 28.7445 15.0066 28.6959 14.8735C27.6723 12.0616 25.6904 9.70002 23.0982 8.20368C20.506 6.70734 17.4693 6.17189 14.5214 6.69137C11.5735 7.21086 8.90295 8.75206 6.97882 11.0443C5.05468 13.3365 4 16.2332 4 19.2255C4 22.2179 5.05468 25.1145 6.97882 27.4067C8.90295 29.699 11.5735 31.2402 14.5214 31.7597C17.4693 32.2791 20.506 31.7437 23.0982 30.2473C25.6904 28.751 27.6723 26.3895 28.6959 23.5775C28.7445 23.4447 28.7648 23.3033 28.7556 23.1622C28.7464 23.0211 28.7078 22.8835 28.6423 22.7582C28.5768 22.6329 28.4859 22.5226 28.3753 22.4345C28.2647 22.3463 28.137 22.2822 28.0002 22.2463Z" fill="#2A7DE1"/>
<path d="M221.916 27.7591V8.24091H229.572C234.02 8.24091 236.554 10.9637 236.554 14.8189C236.554 18.7279 233.966 21.3968 229.464 21.3968H225.959V27.7591H221.916ZM225.959 18.1348H228.817C231.216 18.1348 232.376 16.7869 232.376 14.8189C232.376 12.8778 231.216 11.5568 228.817 11.5568H225.959V18.1348Z" fill="#FA5D79"/>
<path d="M244.581 7.61829V27.1365H240.537V7.61829H244.581Z" fill="#FA5D79"/>
<path d="M242.536 22.6762C240.655 22.6762 239.131 24.2006 239.131 26.0809C239.131 27.9613 240.655 29.4857 242.536 29.4857C244.416 29.4857 245.94 27.9613 245.94 26.0809C245.94 24.2006 244.416 22.6762 242.536 22.6762Z" fill="#FA5D79" stroke="white" stroke-width="2.20847"/>
<path d="M261.942 15.0345C261.619 12.8778 259.947 11.5568 257.683 11.5568C254.636 11.5568 252.641 13.9023 252.641 18C252.641 22.2056 254.663 24.4432 257.656 24.4432C259.893 24.4432 261.538 23.203 261.942 21.1003L266.04 21.1272C265.582 24.7397 262.562 28.0287 257.602 28.0287C252.372 28.0287 248.517 24.3623 248.517 18C248.517 11.6377 252.453 7.97131 257.602 7.97131C262.104 7.97131 265.501 10.5594 266.04 15.0345H261.942Z" fill="#FA5D79"/>
<path d="M269.721 27.7591V8.24091H273.765V16.8947H274.034L281.124 8.24091H286.004L278.725 16.9756L286.085 27.7591H281.232L275.813 19.6984L273.765 22.1786V27.7591H269.721Z" fill="#FA5D79"/>
</svg>
