<svg width="29" height="10" viewBox="0 0 29 10" fill="none" xmlns="http://www.w3.org/2000/svg">
<path d="M0 9.81818V1.18181H3.38775C5.35598 1.18181 6.47728 2.38661 6.47728 4.09241C6.47728 5.82207 5.33212 7.00301 3.34003 7.00301H1.7893V9.81818H0ZM1.7893 5.55964H3.05374C4.1154 5.55964 4.62833 4.9632 4.62833 4.09241C4.62833 3.23354 4.1154 2.64904 3.05374 2.64904H1.7893V5.55964Z" fill="#FA5D79"/>
<path d="M10.0288 1.18195V9.81832H8.2395V1.18195H10.0288Z" fill="#FA5D79"/>
<path d="M10.6304 2.19972C10.6304 1.3677 9.9559 0.693209 9.12387 0.693209C8.29185 0.693209 7.61736 1.3677 7.61736 2.19972C7.61736 3.03175 8.29185 3.70624 9.12387 3.70624C9.9559 3.70624 10.6304 3.03175 10.6304 2.19972Z" fill="#FA5D79" stroke="white" stroke-width="0.977198"/>
<path d="M17.711 4.18763C17.5678 3.23334 16.8283 2.64883 15.8263 2.64883C14.4783 2.64883 13.5956 3.68663 13.5956 5.49979C13.5956 7.36066 14.4902 8.35075 15.8143 8.35075C16.8044 8.35075 17.5321 7.80203 17.711 6.87159L19.5242 6.88352C19.3214 8.48196 17.9854 9.93726 15.7905 9.93726C13.4763 9.93726 11.7705 8.31496 11.7705 5.49979C11.7705 2.68462 13.5121 1.06232 15.7905 1.06232C17.7826 1.06232 19.2856 2.20747 19.5242 4.18763H17.711Z" fill="#FA5D79"/>
<path d="M21.1528 9.81818V1.18181H22.9421V5.01092H23.0614L26.1987 1.18181H28.3578L25.137 5.0467L28.3935 9.81818H26.2464L23.8487 6.2515L22.9421 7.34894V9.81818H21.1528Z" fill="#FA5D79"/>
</svg>
